<svg width="20" height="19" viewBox="0 0 20 19" fill="none" xmlns="http://www.w3.org/2000/svg">
<path d="M18.3917 19C16.1926 19 14.0199 18.5206 11.8736 17.5618C9.72732 16.603 7.77454 15.244 6.01528 13.4847C4.25602 11.7255 2.89699 9.77269 1.93819 7.62639C0.979398 5.48009 0.5 3.30741 0.5 1.10833C0.5 0.791667 0.605556 0.527778 0.816667 0.316667C1.02778 0.105556 1.29167 0 1.60833 0H5.88333C6.12963 0 6.34954 0.0835648 6.54306 0.250694C6.73657 0.417824 6.85093 0.615741 6.88611 0.844444L7.57222 4.53889C7.60741 4.82037 7.59861 5.05787 7.54583 5.25139C7.49306 5.44491 7.3963 5.61204 7.25556 5.75278L4.69583 8.33889C5.04769 8.98982 5.46551 9.61875 5.94931 10.2257C6.4331 10.8326 6.96528 11.4176 7.54583 11.9806C8.0912 12.5259 8.66296 13.0317 9.26111 13.4979C9.85926 13.9641 10.4926 14.3907 11.1611 14.7778L13.6417 12.2972C13.8 12.1389 14.0067 12.0201 14.2618 11.941C14.5169 11.8618 14.7676 11.8398 15.0139 11.875L18.6556 12.6139C18.9019 12.6843 19.1042 12.8118 19.2625 12.9965C19.4208 13.1813 19.5 13.388 19.5 13.6167V17.8917C19.5 18.2083 19.3944 18.4722 19.1833 18.6833C18.9722 18.8944 18.7083 19 18.3917 19Z" fill="#1C1B1F"/>
</svg>
