<svg width="21" height="20" viewBox="0 0 21 20" fill="none" xmlns="http://www.w3.org/2000/svg">
<path d="M0.5 20V4.44444H4.94444V0H16.0556V8.88889H20.5V20H11.6111V15.5556H9.38889V20H0.5ZM2.72222 17.7778H4.94444V15.5556H2.72222V17.7778ZM2.72222 13.3333H4.94444V11.1111H2.72222V13.3333ZM2.72222 8.88889H4.94444V6.66667H2.72222V8.88889ZM7.16667 13.3333H9.38889V11.1111H7.16667V13.3333ZM7.16667 8.88889H9.38889V6.66667H7.16667V8.88889ZM7.16667 4.44444H9.38889V2.22222H7.16667V4.44444ZM11.6111 13.3333H13.8333V11.1111H11.6111V13.3333ZM11.6111 8.88889H13.8333V6.66667H11.6111V8.88889ZM11.6111 4.44444H13.8333V2.22222H11.6111V4.44444ZM16.0556 17.7778H18.2778V15.5556H16.0556V17.7778ZM16.0556 13.3333H18.2778V11.1111H16.0556V13.3333Z" fill="#1C1B1F"/>
</svg>
