<svg width="21" height="27" viewBox="0 0 21 27" fill="none" xmlns="http://www.w3.org/2000/svg">
<path d="M15.5 18.4091L13.75 16.6909L15.6875 14.7273H9.25V12.2727H15.6875L13.75 10.3091L15.5 8.59091L20.5 13.5L15.5 18.4091ZM3 27C2.3125 27 1.72396 26.7597 1.23438 26.279C0.744792 25.7983 0.5 25.2205 0.5 24.5455V2.45455C0.5 1.77955 0.744792 1.2017 1.23438 0.721023C1.72396 0.240341 2.3125 0 3 0H15.5C16.1875 0 16.776 0.240341 17.2656 0.721023C17.7552 1.2017 18 1.77955 18 2.45455V7.36364H15.5V6.13636H3V20.8636H15.5V19.6364H18V24.5455C18 25.2205 17.7552 25.7983 17.2656 26.279C16.776 26.7597 16.1875 27 15.5 27H3ZM3 23.3182V24.5455H15.5V23.3182H3ZM3 3.68182H15.5V2.45455H3V3.68182Z" fill="#1C1B1F"/>
</svg>
